<svg viewBox="0 0 800 600" xmlns="http://www.w3.org/2000/svg">
  <!-- Fondo -->
  <rect width="800" height="600" fill="#f0f4f8"/>
  
  <!-- Monitor/Pantalla -->
  <rect x="200" y="150" width="400" height="280" rx="10" fill="#2c3e50"/>
  <rect x="215" y="165" width="370" height="230" fill="#34495e"/>
  
  <!-- Pantalla con c贸digo -->
  <rect x="225" y="175" width="350" height="210" fill="#1e272e"/>
  
  <!-- L铆neas de c贸digo en construcci贸n -->
  <text x="235" y="200" font-family="monospace" font-size="14" fill="#2ecc71">&lt;html&gt;</text>
  <text x="250" y="220" font-family="monospace" font-size="14" fill="#3498db">&lt;body&gt;</text>
  <text x="265" y="240" font-family="monospace" font-size="14" fill="#e74c3c">&lt;h1&gt;En construcci贸n...&lt;/h1&gt;</text>
  <text x="265" y="260" font-family="monospace" font-size="14" fill="#f39c12">// TODO: Terminar esto </text>
  <text x="250" y="280" font-family="monospace" font-size="14" fill="#3498db">&lt;/body&gt;</text>
  <text x="235" y="300" font-family="monospace" font-size="14" fill="#2ecc71">&lt;/html&gt;</text>
  
  <!-- Cursor parpadeante -->
  <rect x="265" y="310" width="10" height="15" fill="#2ecc71">
    <animate attributeName="opacity" values="1;0;1" dur="1s" repeatCount="indefinite"/>
  </rect>
  
  <!-- Base del monitor -->
  <rect x="380" y="430" width="40" height="30" fill="#2c3e50"/>
  <rect x="340" y="460" width="120" height="10" rx="5" fill="#2c3e50"/>
  
  <!-- Casco de construcci贸n sobre el monitor -->
  <ellipse cx="400" cy="130" rx="45" ry="15" fill="#f39c12"/>
  <path d="M 355 130 Q 400 80 445 130" fill="#f1c40f" stroke="#e67e22" stroke-width="2"/>
  <rect x="395" y="125" width="10" height="15" fill="#e67e22"/>
  
  <!-- Herramientas -->
  <!-- Llave inglesa -->
  <g transform="translate(120, 350)">
    <rect x="0" y="20" width="60" height="12" rx="6" fill="#95a5a6"/>
    <circle cx="55" cy="26" r="15" fill="none" stroke="#95a5a6" stroke-width="8"/>
    <rect x="-5" y="23" width="15" height="6" fill="#7f8c8d"/>
  </g>
  
  <!-- Destornillador -->
  <g transform="translate(620, 340) rotate(30)">
    <rect x="0" y="0" width="80" height="8" fill="#e74c3c"/>
    <polygon points="80,0 100,4 80,8" fill="#95a5a6"/>
  </g>
  
  <!-- Conos de tr谩fico -->
  <g transform="translate(150, 480)">
    <polygon points="20,0 0,60 40,60" fill="#e67e22"/>
    <rect x="5" y="15" width="30" height="8" fill="white"/>
    <rect x="5" y="35" width="30" height="8" fill="white"/>
    <rect x="0" y="60" width="40" height="8" fill="#2c3e50"/>
  </g>
  
  <g transform="translate(610, 480)">
    <polygon points="20,0 0,60 40,60" fill="#e67e22"/>
    <rect x="5" y="15" width="30" height="8" fill="white"/>
    <rect x="5" y="35" width="30" height="8" fill="white"/>
    <rect x="0" y="60" width="40" height="8" fill="#2c3e50"/>
  </g>
  
  <!-- Taza de caf茅 -->
  <g transform="translate(100, 250)">
    <rect x="0" y="20" width="50" height="60" rx="5" fill="#8b4513"/>
    <rect x="5" y="25" width="40" height="50" fill="#d2691e"/>
    <ellipse cx="25" cy="22" rx="25" ry="8" fill="#8b4513"/>
    <path d="M 50 35 Q 70 35 70 50 Q 70 65 50 65" stroke="#8b4513" stroke-width="4" fill="none"/>
    <!-- Vapor -->
    <path d="M 15 10 Q 18 5 15 0" stroke="#bdc3c7" stroke-width="2" fill="none" opacity="0.7">
      <animate attributeName="opacity" values="0.7;0.3;0.7" dur="2s" repeatCount="indefinite"/>
    </path>
    <path d="M 25 10 Q 28 5 25 0" stroke="#bdc3c7" stroke-width="2" fill="none" opacity="0.7">
      <animate attributeName="opacity" values="0.3;0.7;0.3" dur="2s" repeatCount="indefinite"/>
    </path>
    <path d="M 35 10 Q 38 5 35 0" stroke="#bdc3c7" stroke-width="2" fill="none" opacity="0.7">
      <animate attributeName="opacity" values="0.7;0.3;0.7" dur="2s" repeatCount="indefinite"/>
    </path>
  </g>
  
  <!-- Rat贸n de computadora -->
  <g transform="translate(650, 250)">
    <ellipse cx="25" cy="35" rx="22" ry="30" fill="#34495e"/>
    <rect x="23" y="15" width="4" height="20" fill="#2c3e50"/>
    <line x1="25" y1="10" x2="25" y2="35" stroke="#7f8c8d" stroke-width="2"/>
  </g>
  
  <!-- Se帽al de advertencia -->
  <g transform="translate(350, 50)">
    <polygon points="50,10 10,80 90,80" fill="#f39c12" stroke="#e67e22" stroke-width="3"/>
    <text x="43" y="60" font-family="Arial" font-size="40" font-weight="bold" fill="#2c3e50">!</text>
  </g>
  
  <!-- Texto principal -->
  <text x="400" y="530" font-family="Arial, sans-serif" font-size="32" font-weight="bold" fill="#2c3e50" text-anchor="middle">
     P谩gina en Construcci贸n 
  </text>
  
  <text x="400" y="565" font-family="Arial, sans-serif" font-size="16" fill="#7f8c8d" text-anchor="middle">
    Nuestros desarrolladores est谩n tomando caf茅 mientras arreglan bugs...
  </text>
</svg>